<?xml version="1.0" standalone="no"?>
<!DOCTYPE svg PUBLIC "-//W3C//DTD SVG 20010904//EN"
 "http://www.w3.org/TR/2001/REC-SVG-20010904/DTD/svg10.dtd">
<svg version="1.0" xmlns="http://www.w3.org/2000/svg"
 width="374.000000pt" height="374.000000pt" viewBox="0 0 374.000000 374.000000"
 preserveAspectRatio="xMidYMid meet">
<metadata>
Created by potrace 1.11, written by Peter Selinger 2001-2013
</metadata>
<g transform="translate(0.000000,374.000000) scale(0.100000,-0.100000)"
fill="#000000" stroke="none">
<path d="M1465 3695 c-22 -7 -73 -20 -114 -29 -71 -17 -167 -62 -191 -91 -7
-8 -20 -15 -29 -15 -10 0 -27 -9 -39 -20 -12 -11 -30 -20 -41 -20 -11 0 -23
-4 -26 -10 -3 -5 -18 -7 -34 -4 -20 4 -30 1 -34 -10 -5 -11 -1 -16 13 -16 30
0 24 -18 -7 -22 -24 -3 -28 -7 -25 -30 2 -16 -1 -28 -7 -28 -6 0 -11 10 -11
21 0 18 -2 19 -15 9 -8 -7 -15 -21 -15 -31 0 -11 -4 -19 -9 -19 -5 0 -7 -27
-4 -59 5 -47 2 -63 -11 -76 -21 -22 -21 -45 2 -45 16 -1 16 -1 0 -14 -10 -7
-18 -20 -18 -28 0 -8 -5 -19 -12 -26 -9 -9 -8 -16 5 -30 9 -10 17 -28 17 -39
0 -11 11 -30 24 -42 l24 -22 -5 44 c-5 39 -2 47 16 56 11 7 21 21 21 31 0 11
5 20 10 20 21 0 22 -31 3 -87 -15 -50 -18 -92 -18 -298 0 -184 3 -249 14 -280
8 -22 14 -48 12 -58 -1 -10 7 -21 22 -26 24 -9 37 -36 37 -78 0 -12 5 -25 11
-28 7 -5 9 22 6 86 -2 52 1 110 6 129 26 102 43 147 64 171 23 25 23 26 14
187 -12 209 -3 244 71 281 24 12 58 31 75 42 40 25 128 44 248 54 69 5 97 12
120 29 17 12 48 30 70 39 42 18 230 38 281 30 113 -17 176 -52 194 -108 6 -18
18 -39 26 -45 7 -7 14 -21 14 -31 0 -10 14 -29 31 -41 30 -22 31 -25 25 -75
-4 -31 -2 -54 4 -58 5 -3 10 -17 10 -31 0 -27 20 -63 60 -109 24 -28 47 -75
80 -165 7 -19 18 -68 23 -107 6 -40 15 -73 19 -73 4 0 8 27 8 60 0 37 7 74 16
92 20 39 14 92 -25 220 -16 51 -39 129 -51 173 -28 99 -75 204 -124 275 -30
44 -36 60 -31 85 11 57 10 70 -5 70 -9 0 -15 10 -15 24 0 31 -58 69 -215 139
-19 9 -55 19 -80 24 -25 4 -65 13 -90 18 -132 31 -326 38 -395 15z m-425 -285
c0 -5 -4 -10 -10 -10 -5 0 -10 5 -10 10 0 6 5 10 10 10 6 0 10 -4 10 -10z"/>
<path d="M1921 2800 c-123 -22 -151 -41 -133 -87 6 -15 13 -45 17 -65 4 -28
11 -38 24 -38 10 0 30 -17 45 -38 27 -40 81 -62 149 -62 40 0 121 36 112 50
-4 6 -11 8 -16 5 -12 -8 -49 4 -49 15 0 20 59 40 100 34 39 -6 40 -6 32 17 -9
23 -63 58 -113 73 -23 7 -22 8 10 18 27 7 44 6 78 -7 24 -10 47 -14 50 -11 12
12 -16 52 -56 81 -54 37 -113 40 -250 15z"/>
<path d="M1545 2740 c-11 -5 -45 -9 -75 -9 -110 -2 -209 -62 -250 -154 -32
-69 -25 -91 21 -67 30 16 24 -10 -8 -36 l-27 -21 23 -12 c18 -10 30 -9 67 10
36 17 50 19 67 11 21 -10 20 -11 -9 -11 -29 -1 -63 -25 -52 -37 3 -3 37 -8 74
-11 62 -5 77 -2 146 26 66 28 82 39 108 78 16 26 30 53 30 61 0 8 10 35 22 60
22 44 23 45 4 56 -11 6 -33 23 -49 39 -31 27 -56 32 -92 17z"/>
<path d="M3580 2670 c0 -5 5 -10 10 -10 6 0 10 5 10 10 0 6 -4 10 -10 10 -5 0
-10 -4 -10 -10z"/>
<path d="M3681 2610 c-62 -19 -74 -35 -38 -49 29 -11 45 -31 24 -31 -7 0 -24
-11 -37 -25 -13 -14 -31 -25 -41 -25 -21 0 -71 -65 -67 -87 2 -9 11 -21 20
-27 14 -8 23 -5 43 14 20 19 29 22 43 14 26 -17 25 -38 -3 -80 -14 -20 -28
-49 -31 -63 -9 -43 -13 -51 -24 -51 -5 0 -10 9 -10 20 0 13 -7 20 -18 20 -19
0 -52 -29 -52 -45 0 -5 -12 -21 -26 -36 -31 -33 -25 -49 20 -49 19 0 39 -6 45
-13 13 -16 1 -63 -29 -114 -33 -57 -23 -120 22 -135 10 -4 10 -8 0 -21 -15
-18 -8 -37 12 -37 8 0 19 7 26 15 10 12 10 18 0 30 -10 12 -9 15 4 15 33 0 56
-20 56 -49 0 -16 6 -34 14 -40 11 -9 19 -5 40 20 17 20 25 38 20 48 -22 55
-15 97 21 113 29 13 33 45 8 64 -12 8 -18 26 -18 51 0 30 -5 40 -23 48 -38 17
-41 65 -4 65 10 0 28 7 40 16 21 15 22 21 22 185 0 128 -3 169 -12 169 -10 0
-10 2 0 9 8 5 12 22 10 43 l-3 35 -54 -17z m-21 -770 c0 -5 -4 -10 -10 -10 -5
0 -10 5 -10 10 0 6 5 10 10 10 6 0 10 -4 10 -10z"/>
<path d="M2546 2601 c-16 -18 -16 -23 -2 -65 9 -26 16 -55 16 -65 0 -32 13
-32 27 0 24 57 13 149 -17 149 -4 0 -15 -9 -24 -19z"/>
<path d="M2480 2445 c0 -20 22 -65 32 -65 11 0 10 25 -4 55 -12 27 -28 33 -28
10z"/>
<path d="M902 2363 c-10 -20 -1 -103 16 -144 5 -14 27 -40 47 -58 33 -29 38
-30 49 -16 11 15 13 14 24 -9 6 -14 18 -26 27 -26 17 0 18 3 6 50 -5 19 -12
47 -15 63 -9 37 -33 34 -44 -5 l-9 -33 -8 28 c-4 16 -5 46 -2 69 7 51 1 65
-34 83 -36 19 -46 19 -57 -2z"/>
<path d="M1970 2315 c0 -23 42 -69 177 -197 40 -38 61 -27 55 26 -3 28 -18 48
-71 98 -59 56 -124 98 -151 98 -6 0 -10 -11 -10 -25z"/>
<path d="M3301 2326 c-10 -12 -8 -17 9 -26 18 -9 21 -18 16 -41 -5 -28 -4 -29
30 -29 54 0 74 15 74 55 0 38 -10 43 -50 20 -27 -15 -54 -20 -46 -7 2 4 -2 15
-9 25 -11 15 -14 15 -24 3z"/>
<path d="M1538 2288 c-14 -18 -44 -51 -67 -73 -22 -22 -41 -44 -41 -48 0 -5
-12 -24 -26 -42 -14 -19 -35 -63 -45 -97 -19 -58 -19 -66 -4 -104 8 -22 27
-51 40 -64 30 -28 32 -47 5 -55 -14 -4 -20 -15 -20 -34 0 -15 -9 -36 -20 -46
-11 -10 -20 -23 -20 -28 0 -6 -7 -18 -16 -28 -14 -15 -13 -23 15 -84 17 -36
42 -80 56 -96 14 -17 25 -36 25 -44 0 -7 7 -18 15 -25 9 -7 13 -20 10 -28 -3
-8 3 -21 15 -29 16 -11 18 -18 10 -34 -6 -10 -17 -19 -26 -19 -14 0 -24 6 -59
38 -16 14 -38 16 -33 3 8 -23 164 -150 266 -219 62 -41 117 -83 123 -93 11
-22 6 -24 -22 -6 -18 11 -24 8 -48 -21 -42 -49 -62 -157 -45 -241 5 -25 11
-31 33 -31 14 -1 37 -7 51 -15 14 -8 28 -14 31 -15 3 0 6 25 6 55 0 30 -2 55
-4 55 -2 0 -12 -5 -22 -12 -31 -19 -52 -3 -47 36 6 49 14 59 47 54 35 -5 38
13 7 42 -17 15 -19 23 -10 32 15 15 46 -12 70 -61 29 -61 16 -225 -19 -236
-31 -10 -22 -32 24 -54 24 -12 48 -21 54 -21 14 0 37 131 31 177 -8 55 5 73
50 73 20 0 51 4 68 9 37 10 134 -3 146 -21 5 -7 7 -56 5 -108 -2 -52 -2 -100
0 -106 2 -6 18 3 36 21 29 29 35 45 50 132 18 101 22 187 11 242 -9 44 -58 94
-83 86 -16 -5 -18 -2 -14 14 3 11 15 27 27 34 61 41 176 172 176 200 0 7 -13
-2 -28 -18 -15 -17 -44 -43 -65 -58 -32 -24 -38 -26 -43 -12 -4 9 -2 21 4 27
8 8 8 17 1 30 -13 25 3 70 43 116 15 18 30 43 34 56 3 14 13 27 21 30 10 4 13
14 10 27 -3 11 2 39 12 62 27 66 7 115 -29 72 -7 -8 -20 -15 -29 -15 -9 0 -58
-18 -109 -41 l-92 -42 -88 22 c-48 12 -97 29 -109 37 -39 25 -83 17 -96 -18
-3 -10 -13 -18 -21 -18 -8 0 -40 -13 -71 -30 -31 -16 -67 -30 -79 -30 -31 0
-61 24 -76 60 -11 27 -11 33 6 50 10 10 25 26 33 35 11 13 25 15 77 10 54 -6
78 -3 152 20 48 15 98 30 112 34 20 5 26 14 30 46 5 40 -7 81 -25 88 -5 3 -35
1 -65 -4 -30 -4 -81 -8 -113 -8 -73 -1 -121 -24 -112 -52 4 -12 -2 -39 -14
-65 -20 -42 -43 -56 -56 -34 -4 6 -14 9 -23 8 -13 -2 -17 5 -18 32 -1 50 12
71 62 104 53 33 98 45 171 46 51 0 128 16 187 40 39 15 134 3 165 -21 13 -11
26 -19 30 -19 3 0 7 20 8 44 1 35 -4 49 -23 67 -20 19 -27 21 -49 11 -14 -7
-48 -12 -75 -12 -28 0 -50 -5 -52 -12 -6 -18 -68 -12 -83 9 -12 16 -17 16 -46
6 -17 -7 -35 -10 -39 -8 -4 3 -24 7 -44 10 -29 3 -51 -4 -102 -32 -59 -32 -67
-34 -81 -20 -12 12 -22 13 -45 5 -16 -6 -32 -7 -35 -4 -9 8 69 156 85 163 22
9 62 -14 56 -32 -7 -18 0 -19 26 -3 15 10 22 9 39 -6 14 -13 38 -18 88 -19
l67 -2 6 30 c4 24 15 34 52 52 26 12 52 32 59 44 17 32 -18 59 -77 59 -25 0
-61 9 -84 21 -36 19 -47 20 -78 11 -20 -6 -59 -30 -86 -52 -26 -22 -52 -40
-57 -40 -13 0 -11 47 3 70 9 14 9 23 2 30 -8 8 -18 1 -36 -22z m152 -298 c0
-5 -5 -10 -11 -10 -5 0 -7 5 -4 10 3 6 8 10 11 10 2 0 4 -4 4 -10z m404 -981
c-27 -27 -52 -49 -57 -49 -4 0 -13 -5 -20 -10 -64 -54 -82 -63 -75 -37 4 16
120 122 163 148 48 30 42 2 -11 -52z"/>
<path d="M2863 2267 c-2 -4 -2 -16 2 -27 4 -13 19 -21 52 -26 49 -7 65 4 61
41 -3 17 -11 20 -56 20 -30 0 -56 -3 -59 -8z"/>
<path d="M3105 2231 c-3 -5 0 -21 6 -35 9 -20 9 -29 -1 -41 -12 -15 -8 -45 7
-45 4 0 15 4 23 10 12 7 12 13 1 33 -11 21 -11 28 3 50 15 23 15 25 1 31 -23
8 -33 8 -40 -3z"/>
<path d="M2605 2130 c-39 -41 -95 -112 -95 -120 0 -33 62 -13 107 35 20 22 41
35 57 35 25 0 44 29 32 49 -11 17 -86 18 -101 1z"/>
<path d="M340 2125 c0 -8 5 -15 10 -15 6 0 10 7 10 15 0 8 -4 15 -10 15 -5 0
-10 -7 -10 -15z"/>
<path d="M2505 2110 c-3 -5 -1 -10 4 -10 6 0 11 5 11 10 0 6 -2 10 -4 10 -3 0
-8 -4 -11 -10z"/>
<path d="M3346 2113 c-12 -12 -5 -23 14 -23 11 0 20 4 20 9 0 11 -26 22 -34
14z"/>
<path d="M2986 2058 c-22 -31 -20 -58 4 -58 21 0 40 27 40 59 0 28 -25 27 -44
-1z"/>
<path d="M3311 1994 c-24 -13 -54 -32 -65 -43 -12 -10 -47 -33 -79 -50 -47
-25 -59 -28 -63 -16 -3 8 4 28 16 45 12 17 19 38 16 47 -6 14 -8 14 -24 -1
-23 -20 -76 -21 -107 0 -38 25 -48 10 -42 -63 5 -50 3 -70 -9 -88 -11 -17 -14
-36 -9 -64 6 -34 10 -39 38 -44 18 -2 41 -1 52 3 14 5 34 -4 73 -33 52 -39 55
-40 68 -22 19 26 19 27 -29 50 -42 20 -56 47 -26 53 9 2 24 -4 33 -13 16 -16
41 -12 31 6 -4 5 -1 9 4 9 6 0 11 -4 11 -10 0 -5 5 -10 10 -10 6 0 10 9 10 20
0 12 17 38 38 59 68 70 87 96 99 136 20 65 21 64 -46 29z m-271 -134 c0 -5 -4
-10 -10 -10 -5 0 -10 5 -10 10 0 6 5 10 10 10 6 0 10 -4 10 -10z"/>
<path d="M1057 1973 c-2 -4 -8 -30 -11 -56 -6 -36 -3 -54 8 -72 10 -15 14 -35
10 -52 -4 -23 -1 -31 23 -45 34 -20 43 -15 61 32 21 53 19 61 -12 79 -18 10
-34 33 -46 65 -21 54 -26 61 -33 49z"/>
<path d="M2492 1957 c-28 -57 -37 -108 -36 -202 1 -71 6 -109 18 -130 11 -21
16 -57 16 -121 0 -77 -5 -104 -31 -175 -17 -46 -39 -109 -49 -139 -10 -30 -30
-84 -44 -120 -37 -95 -97 -306 -95 -338 1 -15 -9 -49 -22 -77 -21 -45 -23 -66
-25 -215 -1 -91 -6 -176 -11 -190 -6 -14 -14 -76 -18 -137 l-7 -113 776 0 776
0 0 805 c0 443 -2 805 -5 805 -7 0 -68 -42 -75 -52 -3 -4 -6 -33 -5 -65 l0
-58 33 -2 c76 -3 50 -28 -39 -37 -76 -7 -91 2 -88 55 1 28 -7 43 -50 89 -51
54 -52 56 -46 105 5 35 2 56 -8 69 -19 25 -55 13 -63 -22 -12 -49 -46 -73 -41
-29 1 17 -4 23 -24 25 -44 5 -78 -66 -42 -87 10 -5 14 -13 10 -17 -4 -4 -13
-2 -19 4 -7 7 -20 12 -29 12 -16 0 -16 -3 -3 -29 9 -17 16 -69 18 -126 3 -53
10 -102 16 -110 10 -11 7 -15 -15 -21 -48 -12 -143 5 -208 36 -84 40 -146 57
-250 69 -48 6 -92 13 -97 16 -13 8 -13 112 0 120 19 12 11 54 -12 66 -13 7
-25 11 -28 9 -13 -9 -23 31 -12 52 31 62 72 131 87 148 20 22 12 40 -16 40
-31 0 -59 -19 -59 -40 0 -40 -78 -55 -101 -19 -13 18 -17 19 -42 8 -15 -7 -30
-9 -34 -6 -3 4 -1 42 5 84 6 43 9 79 8 80 -1 2 -8 -7 -14 -20z m1003 -637 c33
-6 87 -13 120 -16 71 -7 85 -14 29 -14 -46 0 -253 19 -272 26 -27 8 1 26 32
20 17 -4 58 -11 91 -16z"/>
<path d="M13 1843 c-8 -3 -13 -24 -13 -53 0 -52 10 -60 75 -60 41 0 51 9 63
53 16 58 9 67 -57 66 -31 0 -62 -3 -68 -6z"/>
<path d="M870 1756 c0 -8 14 -24 30 -36 38 -27 38 -49 0 -85 -27 -26 -29 -30
-13 -37 10 -3 32 -7 50 -7 24 -1 33 4 38 22 4 12 15 31 25 42 10 11 22 33 26
48 l7 29 -45 -7 c-41 -6 -45 -5 -56 19 -13 29 -62 38 -62 12z"/>
<path d="M2851 1721 c-55 -26 -51 -43 6 -25 26 9 54 18 62 20 8 2 12 7 9 10
-13 12 -46 10 -77 -5z"/>
<path d="M3645 1710 c-8 -13 4 -32 16 -25 12 8 12 35 0 35 -6 0 -13 -4 -16
-10z"/>
<path d="M558 1643 c-12 -3 -18 -14 -18 -34 0 -23 -5 -30 -27 -35 -54 -11 -59
-16 -31 -24 26 -8 150 3 191 16 25 8 17 38 -11 42 -13 2 -28 12 -35 23 -11 18
-32 22 -69 12z"/>
<path d="M1160 1639 c-31 -13 -42 -30 -28 -46 27 -33 81 -3 71 38 -6 21 -8 22
-43 8z"/>
<path d="M1255 1600 c-9 -15 3 -60 15 -60 13 0 13 57 1 65 -5 3 -13 0 -16 -5z"/>
<path d="M1015 1380 c3 -5 8 -10 11 -10 2 0 4 5 4 10 0 6 -5 10 -11 10 -5 0
-7 -4 -4 -10z"/>
<path d="M1260 1327 c0 -13 -7 -48 -16 -78 -25 -89 -24 -86 -38 -66 -19 25
-46 21 -86 -13 -19 -17 -46 -30 -60 -30 -37 0 -96 -20 -290 -98 -96 -39 -204
-76 -239 -82 -35 -6 -87 -20 -115 -31 -80 -32 -368 -178 -393 -200 l-23 -19 0
-355 0 -355 845 0 845 0 -7 33 c-7 35 -50 199 -108 405 -21 73 -34 136 -31
140 4 3 18 -8 32 -26 27 -34 64 -43 64 -16 0 9 -9 18 -19 21 -46 12 -116 129
-165 275 -19 58 -51 139 -71 179 -44 86 -85 211 -85 256 0 39 -16 83 -30 83
-5 0 -10 -10 -10 -23z"/>
<path d="M1637 683 c-25 -24 26 -83 132 -155 43 -28 46 -29 58 -12 26 35 17
46 -65 80 -24 10 -58 35 -76 56 -34 40 -38 42 -49 31z"/>
</g>
</svg>
